<?xml version="1.0" encoding="utf-8"?>
<!-- Generator: Adobe Illustrator 17.1.0, SVG Export Plug-In . SVG Version: 6.00 Build 0)  -->
<!DOCTYPE svg PUBLIC "-//W3C//DTD SVG 1.1//EN" "http://www.w3.org/Graphics/SVG/1.1/DTD/svg11.dtd">
<svg version="1.1" id="Layer_1" xmlns="http://www.w3.org/2000/svg" xmlns:xlink="http://www.w3.org/1999/xlink" x="0px" y="0px"
	 viewBox="121 200 258 100" enable-background="new 121 200 258 100" xml:space="preserve">
<g id="T_1_">
</g>
<g id="P_1_">
	<g>
		<g id="T">
			<path fill="#2F8B40" d="M150.4,217.8c-15.2,7.4-26.7,19.6-29.1,28.7c3.3-2.8,6.5-4.3,10.1-5.1c4.6-0.9,4.2-4.9,2.2-5.9
				c1-2,6-6.1,9.7-7.8c3.7-1.8,8-3.4,12.3-3.7c-0.9,2-4.6,12.9-6.1,24.6c-2.6,19.5-1.2,39.9,0.2,44.7c0-4-0.5-30.3,5.6-49.6
				c5.3-17,13.3-27.9,18.8-33C171.3,210.5,162.1,212,150.4,217.8z"/>
		</g>
		<g id="P">
			<path fill="#2F8B40" d="M203.3,200.2c-1.5,1.4-12.3,0.3-26.3,11.2c-7.4,5.9-17,18.9-21.4,34.3c-7.1,24-5.3,51.4-4.4,53.5
				c0.3-2.2-0.9-25.5,6.6-48.6c3-9.4,7-18.5,18.2-30c9.6-9.9,18.9-10.6,19.2-10.2c0.3,0.3,0.4,9-8.5,15.6
				c-5.3,3.9-14.2,4.9-14.2,4.9s13.3,1.7,21.6-4.9C204.7,217.5,204.9,204.7,203.3,200.2z"/>
		</g>
	</g>
</g>
<g id="TAPARUK_1_">
	<g id="TAPARUK">
		<path fill="#FF9900" d="M310.4,271.2c-0.5-1-1-2.1-1.5-3.3c-0.5-1.2-1-2.4-1.6-3.8c-0.6-1.3-1.5-2.7-2.6-4
			c-0.9-1.1-1.7-1.9-2.6-2.5c-0.9-0.5-1.8-0.9-2.8-1.3c0.3,0,1.1-0.2,2.2-0.4c1.1-0.3,2.3-0.8,3.5-1.5c1.2-0.7,2.3-1.7,3.3-2.9
			c0.9-1.2,1.5-2.8,1.5-4.7c0-2.2-0.4-4-1.3-5.3c-0.9-1.4-2-2.4-3.3-3.2c-1.3-0.8-2.8-1.2-4.2-1.5c-1.5-0.3-2.8-0.4-4.1-0.4h-11.2
			v35.9c0,1.5-0.3,2.2-0.8,2.5c-0.1,0-0.1,0-0.2,0.1c-0.7-0.3-1.1-0.9-1.4-1.6l-15.5-37.2h-3.2c-2.5,6-4.6,11.1-6.3,15.2
			s-3.2,7.6-4.3,10.2c-1.1,2.8-2,4.8-2.6,6.4c-0.6,1.5-1,2.6-1.4,3.4c-0.3,0.7-0.5,1.1-0.6,1.3c-0.1,0.2-0.2,0.3-0.2,0.3
			c-0.2,0.4-0.3,0.9-0.6,1.1c-0.2,0.2-0.5,0.4-0.9,0.8c-0.2,0.2-0.5,0.3-1.1,0.4v0.5h8.1v-0.5c-1.3,0-2-0.3-2.2-0.9
			c-0.2-0.4,0-1.2,0.4-2.3l2.4-5.8c0.5-1.3,1.5-2.2,2.9-2.9c1.4-0.7,2.9-1,4.6-1c1.6,0,3.3,0.3,4.9,0.9c1.6,0.6,2.8,1.5,3.8,2.7h1.3
			c-1.5-2.2-3.2-3.8-5-4.6c-1.7-0.9-3.4-1.5-4.8-1.6c-1.8-0.3-3.5-0.1-5.2,0.4l7.1-17.8l12.1,30.6c0.4,0.9,0.4,1.6,0,2
			c-0.4,0.3-1.1,0.5-2,0.5v0.5h15.4V239h4.5c0.9,0,1.8,0.1,2.9,0.3c1.1,0.2,2.2,0.4,3.1,0.9c1,0.4,1.8,1.1,2.5,2.1
			c0.7,0.9,1,2.2,1,3.9c0,1.5-0.3,2.9-1.1,4c-0.8,1.1-1.6,2.1-2.8,2.8s-2.3,1.2-3.7,1.5c-1.4,0.3-2.6,0.5-3.9,0.5v1.8
			c1.1,0,2.4,0.4,3.7,1.2c0.7,0.4,1.4,1,2,1.9c0.7,0.9,1.3,1.9,2,3c0.7,1.1,1.3,2.3,1.9,3.5c0.6,1.3,1.2,2.5,1.7,3.8
			c0.8,1.8,1.8,3.2,3,3.9c1.2,0.8,2.3,1.3,3.4,1.5c1.3,0.3,2.6,0.3,4,0v-0.8c-0.9,0-1.7-0.3-2.5-1
			C311.6,273.1,310.9,272.2,310.4,271.2z M339,262.7c0,1.4-0.2,2.8-0.6,4c-0.3,1.3-0.9,2.4-1.8,3.4c-0.9,1-1.9,1.8-3.3,2.4
			c-1.4,0.6-3.1,0.9-5.1,0.9c-3.3,0-5.9-0.9-7.7-2.8s-2.8-4.7-2.8-8.8v-25.5h-7.8v0.6h0.9c0.9,0,1.5,0.3,1.8,0.8
			c0.2,0.5,0.3,1.2,0.3,2.1v22c0,2.7,0.4,4.9,1.2,6.7c0.8,1.9,1.9,3.4,3.3,4.6c1.4,1.1,2.9,2,4.6,2.5c1.8,0.5,3.6,0.9,5.6,0.9
			c3,0,5.4-0.4,7.3-1.4c1.9-0.9,3.4-2.1,4.5-3.4c1.1-1.4,1.8-2.9,2.2-4.6c0.4-1.7,0.6-3.4,0.6-5.1v-25.5h-3.2L339,262.7L339,262.7z
			 M376.7,274.4c-0.5-0.3-1.1-0.8-1.7-1.4l-19.2-18.1l16.2-16.3c0.7-0.7,1.3-1.1,1.8-1.3c0.3-0.1,0.5-0.2,0.9-0.3
			c0.3-0.1,0.8-0.1,1.2-0.2v-0.6h-6.3l-18,18.2v-18.2h-5.1v35.9c0,0.8,0,1.3-0.1,1.5c-0.1,0.4-0.3,0.7-0.4,0.8
			c-0.1,0.2-0.4,0.3-0.9,0.4c-0.2,0-0.4,0-0.7,0s-0.5,0-0.9,0v0.5h7.9v-18.4l20.2,18.5h7v-0.5C377.9,275,377.2,274.7,376.7,274.4z
			 M255.4,252.3c0.8-1.5,1.2-2.8,1.2-5.1c0-3.4-1.2-6-3.7-8c-2.5-2-5.9-2.9-9.9-2.9h-10.3v36c0,0.3,0,0.6,0,0.9s0,0.4,0,0.7
			c-0.1,0.4-0.3,0.8-0.4,0.9c-0.1,0.1-0.1,0.2-0.3,0.2c-0.8-0.3-1.3-0.9-1.6-1.7L214.8,236h-3.2c-2.5,6-4.6,11.1-6.3,15.2
			c-1.7,4.1-3.2,7.6-4.3,10.2c-1.1,2.8-2,4.8-2.6,6.4c-0.6,1.5-1,2.6-1.4,3.4c-0.3,0.7-0.5,1.1-0.6,1.3c-0.1,0.2-0.2,0.3-0.2,0.3
			c-0.2,0.4-0.3,0.9-0.6,1.1c-0.2,0.2-0.5,0.4-0.9,0.8c-0.2,0.2-0.3,0.3-0.8,0.3c-0.7,0-1.2,0-1.5-0.1c-0.3,0-0.6-0.1-0.9-0.3
			c-0.3-0.2-0.4-0.4-0.4-0.9c-0.1-0.4-0.2-0.9-0.2-1.5v-33.1h7.6c1.5,0,2.6,0.3,3.4,0.9c0.6,0.6,1.1,1.6,1.5,3.2h0.5l-0.2-7h-30.6
			l-0.3,7h0.5c0.3-1.5,0.9-2.6,1.5-3.1c0.8-0.6,1.9-0.9,3.4-0.9h7.7v36.4h15.7v-0.5c-1.3,0-2-0.3-2.2-0.9c-0.2-0.4,0-1.2,0.4-2.3
			l2.4-5.8c0.5-1.3,1.5-2.2,2.8-2.9c1.4-0.7,2.9-1,4.6-1c1.6,0,3.3,0.3,4.9,0.9c1.6,0.6,2.8,1.5,3.8,2.7h1.3c-1.5-2.2-3.2-3.8-5-4.6
			c-1.7-0.9-3.4-1.5-4.9-1.6c-1.8-0.3-3.5-0.1-5.2,0.4l7.1-17.8l12.3,30.6c0.4,0.9,0.4,1.6,0,2c-0.4,0.3-1.1,0.5-2,0.5v0.5h7.6v0.1
			h7.7v-3.4v-33.2h4.3c1,0,2.2,0.2,3.3,0.4c1.1,0.3,2.2,0.7,3.2,1.3c0.9,0.6,1.7,1.5,2.3,2.5c0.6,1,0.9,2.3,0.9,4
			c0,3-0.9,5.4-2.6,6.7s-3.7,2.7-6.5,2.8c-1.1,0.1-2.1,0-2.7-0.1c-0.5,0-1,0-1.6,0l0.9,0.5c0,0,1.5,0.5,3.4,0.7
			C250.7,258.4,254.2,254.6,255.4,252.3z"/>
	</g>
</g>
<g id="acrylic_designed_product_1_">
	<g id="acrylic_designed_product">
		<path fill="#523E00" d="M190,283.7v-2.4c0-1-0.7-1.4-1.6-1.4c-0.9,0-1.7,0.4-1.8,1.5h0.5c0.1-0.8,0.6-1,1.3-1
			c0.8,0,1.1,0.3,1.1,0.9c0,0.2,0,0.4-0.2,0.4c-0.2,0.1-0.5,0.2-0.7,0.2l-0.7,0.1c-1,0.2-1.5,0.6-1.5,1.4c0,0.9,0.7,1.3,1.5,1.3
			c0.7,0,1.2-0.3,1.6-0.8c0,0.3,0.1,0.6,0.4,0.7c0.1,0,0.2,0,0.3,0c0.2,0,0.3-0.1,0.4-0.1V284C190.1,284.2,190,284.1,190,283.7z
			 M189.5,282.8c0,0.9-0.8,1.3-1.6,1.3c-0.5,0-0.9-0.3-0.9-0.8c0-0.6,0.4-0.9,1.3-0.9c0.4,0,0.9-0.1,1.4-0.3L189.5,282.8
			L189.5,282.8z M197.4,284.1c-1,0-1.5-0.9-1.5-1.9c0-0.9,0.4-1.9,1.5-1.9c0.7,0,1.1,0.4,1.3,1h0.5c-0.2-1-0.9-1.5-1.9-1.5
			c-1.4,0-2.1,1.1-2.1,2.3c0,1.3,0.6,2.3,2.1,2.3c1.1,0,1.7-0.7,1.9-1.6h-0.4C198.6,283.7,198.1,284.1,197.4,284.1z M205,280.8
			L205,280.8V280h-0.5v4.5h0.5v-2.2c0-1,0.3-1.9,1.5-1.8v-0.6C205.7,279.9,205.3,280.1,205,280.8z M213.1,283.8l-1.5-3.9H211
			l1.7,4.5c-0.2,0.4-0.3,1.2-0.9,1.2c-0.2,0-0.3,0-0.4-0.1v0.5c0.2,0,0.3,0.1,0.5,0.1c0.7,0,1-0.7,1.4-1.8l1.6-4.4h-0.6L213.1,283.8
			z M220.1,284.4h0.5v-6.2h-0.5V284.4z M226.1,284.4h0.5V280h-0.5V284.4z M226.1,279h0.6v-0.8h-0.6V279z M233.9,284.1
			c-1,0-1.5-0.9-1.5-1.9c0-0.9,0.4-1.9,1.5-1.9c0.7,0,1.1,0.4,1.3,1h0.5c-0.2-1-0.9-1.5-1.9-1.5c-1.4,0-2.1,1.1-2.1,2.3
			c0,1.3,0.6,2.3,2.1,2.3c1.1,0,1.7-0.7,1.9-1.6h-0.5C235.1,283.7,234.7,284.1,233.9,284.1z M251,280.7c-0.3-0.5-0.9-0.9-1.6-0.9
			c-1.4,0-2,1.1-2,2.3c0,1.3,0.6,2.3,2,2.3c0.6,0,1.3-0.3,1.5-0.9l0,0v0.8h0.5v-6.2h-0.5L251,280.7L251,280.7z M249.4,284.1
			c-0.9,0-1.5-0.6-1.5-1.7c0-1.1,0.4-2.1,1.5-2.1c0.9,0,1.5,0.9,1.5,1.9C251,283.2,250.5,284.1,249.4,284.1z M258.7,279.9
			c-1.3,0-2.1,1-2.1,2.4c0,1.3,0.6,2.3,2.1,2.3c1.1,0,1.6-0.7,1.9-1.5H260c-0.2,0.7-0.7,1-1.4,1c-1,0-1.5-0.8-1.5-1.8h3.4
			C260.7,280.7,259.9,279.9,258.7,279.9z M257.3,281.9c0.1-0.9,0.6-1.5,1.5-1.5c0.9,0,1.4,0.7,1.4,1.5H257.3z M266.3,281.1
			c0-0.4,0.3-0.8,1-0.8c0.7,0,1.1,0.3,1.2,0.9h0.5c-0.2-1-0.8-1.4-1.7-1.4c-1,0-1.5,0.5-1.5,1.3c0,1.7,2.8,0.9,2.8,2.2
			c0,0.4-0.3,0.9-1.1,0.9c-0.8,0-1.2-0.3-1.4-1h-0.5c0,0.9,0.7,1.5,1.7,1.5s1.8-0.4,1.8-1.3C269.2,281.5,266.3,282.3,266.3,281.1z
			 M274.4,284.4h0.5V280h-0.5V284.4z M274.3,279h0.6v-0.8h-0.6V279z M283.8,280.7L283.8,280.7c-0.3-0.6-1-0.9-1.5-0.9
			c-1.5,0-2,1-2,2.3c0,1.3,0.6,2.3,2,2.3c0.6,0,1.3-0.3,1.6-0.9c0,1-0.2,2.1-1.5,2.1c-0.6,0-1.2-0.2-1.4-0.9h-0.5
			c0,0.5,0.6,1.3,1.9,1.3c1.7,0,2.1-1,2.1-2.2v-4h-0.5L283.8,280.7L283.8,280.7z M282.2,284.1c-1,0-1.5-0.9-1.5-2.1
			c0-1.1,0.7-1.7,1.5-1.7c0.9,0,1.5,0.9,1.5,1.9C283.8,283.2,283.2,284.1,282.2,284.1z M291.7,279.9c-0.6,0-1,0.3-1.5,0.8v-0.6h-0.5
			v4.5h0.5V282c0-0.3,0-0.6,0.1-0.9c0.2-0.4,0.6-0.9,1.2-0.9c0.9,0,1.1,0.4,1.1,1.2v2.9h0.5v-2.9c0-0.3,0-0.7-0.3-1
			C292.7,280.1,292.2,279.9,291.7,279.9z M300.5,279.9c-1.3,0-2.1,1-2.1,2.4c0,1.3,0.6,2.3,2.1,2.3c1.1,0,1.6-0.7,1.9-1.5h-0.6
			c-0.2,0.7-0.7,1-1.4,1c-1,0-1.5-0.8-1.5-1.8h3.4C302.5,280.7,301.7,279.9,300.5,279.9z M298.9,281.9c0.1-0.9,0.6-1.5,1.5-1.5
			c0.9,0,1.4,0.7,1.4,1.5H298.9z M311,280.7c-0.3-0.5-0.9-0.9-1.6-0.9c-1.4,0-2,1.1-2,2.3c0,1.3,0.6,2.3,2,2.3
			c0.6,0,1.3-0.3,1.5-0.9l0,0v0.8h0.5v-6.2h-0.5L311,280.7L311,280.7z M309.5,284.1c-0.9,0-1.5-0.6-1.5-1.7c0-1.1,0.4-2.1,1.5-2.1
			c0.9,0,1.5,0.9,1.5,1.9C311,283.2,310.5,284.1,309.5,284.1z M325.6,279.9c-0.6,0-1.3,0.3-1.5,0.9l0,0v-0.8h-0.5v6.2h0.5v-2.5
			c0.3,0.5,0.9,0.9,1.6,0.9c1.4,0,2-1.1,2-2.3C327.6,280.9,327.1,279.9,325.6,279.9z M325.5,284.1c-0.9,0-1.5-0.9-1.5-1.9
			c0-1.1,0.5-1.9,1.5-1.9c0.9,0,1.5,0.6,1.5,1.7C327.1,283.2,326.7,284.1,325.5,284.1z M333.5,280.8L333.5,280.8V280h-0.5v4.5h0.5
			v-2.2c0-1,0.3-1.9,1.5-1.8v-0.6C334.1,279.9,333.7,280.1,333.5,280.8z M341.5,279.9c-1.4,0-2.1,1-2.1,2.3c0,1.5,0.9,2.3,2.1,2.3
			c1.3,0,2.1-0.9,2.1-2.3C343.5,280.9,342.8,279.9,341.5,279.9z M341.5,284.1c-1,0-1.5-0.8-1.5-1.9c0-0.9,0.4-1.9,1.5-1.9
			c1.1,0,1.5,0.9,1.5,1.9C343,283.2,342.6,284.1,341.5,284.1z M352.1,280.7c-0.3-0.5-0.9-0.9-1.6-0.9c-1.4,0-2,1.1-2,2.3
			c0,1.3,0.6,2.3,2,2.3c0.6,0,1.3-0.3,1.5-0.9l0,0v0.8h0.5v-6.2H352L352.1,280.7L352.1,280.7z M350.6,284.1c-0.9,0-1.5-0.6-1.5-1.7
			c0-1.1,0.4-2.1,1.5-2.1c0.9,0,1.5,0.9,1.5,1.9C352.1,283.2,351.5,284.1,350.6,284.1z M361,282.4c0,0.9-0.5,1.7-1.4,1.7
			c-0.8,0-1.1-0.4-1.1-1.2V280H358v2.9c0,0.9,0.4,1.6,1.5,1.6c0.8,0,1.2-0.4,1.5-0.8v0.6h0.5v-4.5H361V282.4z M368.8,284.1
			c-1,0-1.5-0.9-1.5-1.9c0-0.9,0.4-1.9,1.5-1.9c0.7,0,1.1,0.4,1.3,1h0.5c-0.2-1-0.9-1.5-1.9-1.5c-1.4,0-2.1,1.1-2.1,2.3
			c0,1.3,0.6,2.3,2.1,2.3c1.1,0,1.7-0.7,1.9-1.6H370C370,283.7,369.5,284.1,368.8,284.1z M377,284.1c-0.4,0-0.4-0.2-0.4-0.6v-3.1
			h0.9V280h-0.9v-1.2h-0.5v1.2h-0.6v0.4h0.6v3.3c0,0.7,0.3,0.9,0.8,0.9c0.3,0,0.4-0.1,0.6-0.1V284
			C377.3,284.1,377.1,284.1,377,284.1z"/>
	</g>
</g>
</svg>
